<?xml version="1.0" encoding="utf-8" standalone="no"?>
<!DOCTYPE svg PUBLIC "-//W3C//DTD SVG 1.1//EN"
  "http://www.w3.org/Graphics/SVG/1.1/DTD/svg11.dtd">
<svg xmlns:xlink="http://www.w3.org/1999/xlink" width="432pt" height="288pt" viewBox="0 0 432 288" xmlns="http://www.w3.org/2000/svg" version="1.1">
 <metadata>
  <rdf:RDF xmlns:dc="http://purl.org/dc/elements/1.1/" xmlns:cc="http://creativecommons.org/ns#" xmlns:rdf="http://www.w3.org/1999/02/22-rdf-syntax-ns#">
   <cc:Work>
    <dc:type rdf:resource="http://purl.org/dc/dcmitype/StillImage"/>
    <dc:date>2023-10-25T16:17:40.062866</dc:date>
    <dc:format>image/svg+xml</dc:format>
    <dc:creator>
     <cc:Agent>
      <dc:title>Matplotlib v3.7.1, https://matplotlib.org/</dc:title>
     </cc:Agent>
    </dc:creator>
   </cc:Work>
  </rdf:RDF>
 </metadata>
 <defs>
  <style type="text/css">*{stroke-linejoin: round; stroke-linecap: butt}</style>
 </defs>
 <g id="figure_1">
  <g id="patch_1">
   <path d="M 0 288 
L 432 288 
L 432 0 
L 0 0 
L 0 288 
z
" style="fill: none"/>
  </g>
  <g id="axes_1">
   <g id="line2d_1">
    <path d="M 60.207827 91.025434 
L 63.054976 79.32367 
" clip-path="url(#p9ed356c2f7)" style="fill: none; stroke: #0000ff; stroke-width: 1.5; stroke-linecap: round"/>
   </g>
   <g id="line2d_2">
    <path d="M 63.054976 79.32367 
L 72.998466 59.527656 
" clip-path="url(#p9ed356c2f7)" style="fill: none; stroke: #0000ff; stroke-width: 1.5; stroke-linecap: round"/>
   </g>
   <g id="line2d_3">
    <path d="M 72.998466 59.527656 
L 83.169766 83.708886 
" clip-path="url(#p9ed356c2f7)" style="fill: none; stroke: #0000ff; stroke-width: 1.5; stroke-linecap: round"/>
   </g>
   <g id="line2d_4">
    <path d="M 83.169766 83.708886 
L 82.768953 76.836389 
" clip-path="url(#p9ed356c2f7)" style="fill: none; stroke: #0000ff; stroke-width: 1.5; stroke-linecap: round"/>
   </g>
   <g id="line2d_5">
    <path d="M 82.768953 76.836389 
L 90.28304 44.443636 
" clip-path="url(#p9ed356c2f7)" style="fill: none; stroke: #0000ff; stroke-width: 1.5; stroke-linecap: round"/>
   </g>
  </g>
  <g id="axes_2">
   <g id="line2d_6">
    <path d="M 113.568312 53.478798 
L 125.860616 76.621413 
" clip-path="url(#p6d38871717)" style="fill: none; stroke: #0000ff; stroke-width: 1.5; stroke-linecap: round"/>
   </g>
   <g id="line2d_7">
    <path d="M 125.860616 76.621413 
L 130.678066 84.354423 
" clip-path="url(#p6d38871717)" style="fill: none; stroke: #0000ff; stroke-width: 1.5; stroke-linecap: round"/>
   </g>
   <g id="line2d_8">
    <path d="M 130.678066 84.354423 
L 140.447205 94.466718 
" clip-path="url(#p6d38871717)" style="fill: none; stroke: #0000ff; stroke-width: 1.5; stroke-linecap: round"/>
   </g>
   <g id="line2d_9">
    <path d="M 140.447205 94.466718 
L 141.987454 95.103945 
" clip-path="url(#p6d38871717)" style="fill: none; stroke: #0000ff; stroke-width: 1.5; stroke-linecap: round"/>
   </g>
   <g id="line2d_10">
    <path d="M 141.987454 95.103945 
L 157.048831 75.753566 
" clip-path="url(#p6d38871717)" style="fill: none; stroke: #0000ff; stroke-width: 1.5; stroke-linecap: round"/>
   </g>
  </g>
  <g id="axes_3">
   <g id="line2d_11">
    <path d="M 173.74215 75.545237 
L 180.099142 110.922339 
" clip-path="url(#p59d5d1c48f)" style="fill: none; stroke: #0000ff; stroke-width: 1.5; stroke-linecap: round"/>
   </g>
   <g id="line2d_12">
    <path d="M 180.099142 110.922339 
L 183.920251 126.929903 
" clip-path="url(#p59d5d1c48f)" style="fill: none; stroke: #0000ff; stroke-width: 1.5; stroke-linecap: round"/>
   </g>
   <g id="line2d_13">
    <path d="M 183.920251 126.929903 
L 185.618376 172.044601 
" clip-path="url(#p59d5d1c48f)" style="fill: none; stroke: #0000ff; stroke-width: 1.5; stroke-linecap: round"/>
   </g>
   <g id="line2d_14">
    <path d="M 185.618376 172.044601 
L 171.559318 233.486582 
" clip-path="url(#p59d5d1c48f)" style="fill: none; stroke: #0000ff; stroke-width: 1.5; stroke-linecap: round"/>
   </g>
  </g>
  <g id="axes_4">
   <g id="line2d_15">
    <path d="M 237.877179 53.382732 
L 235.861985 117.862775 
" clip-path="url(#pe7f5f9a919)" style="fill: none; stroke: #0000ff; stroke-width: 1.5; stroke-linecap: round"/>
   </g>
   <g id="line2d_16">
    <path d="M 235.861985 117.862775 
L 232.833594 192.058038 
" clip-path="url(#pe7f5f9a919)" style="fill: none; stroke: #0000ff; stroke-width: 1.5; stroke-linecap: round"/>
   </g>
   <g id="line2d_17">
    <path d="M 232.833594 192.058038 
L 230.960267 217.906819 
" clip-path="url(#pe7f5f9a919)" style="fill: none; stroke: #0000ff; stroke-width: 1.5; stroke-linecap: round"/>
   </g>
   <g id="line2d_18">
    <path d="M 230.960267 217.906819 
L 229.986403 242.116364 
" clip-path="url(#pe7f5f9a919)" style="fill: none; stroke: #0000ff; stroke-width: 1.5; stroke-linecap: round"/>
   </g>
  </g>
  <g id="axes_5">
   <g id="line2d_19">
    <path d="M 289.386383 135.178919 
L 300.395118 46.587851 
" clip-path="url(#p70457bc346)" style="fill: none; stroke: #0000ff; stroke-width: 1.5; stroke-linecap: round"/>
   </g>
   <g id="line2d_20">
    <path d="M 300.395118 46.587851 
L 300.44635 72.970318 
" clip-path="url(#p70457bc346)" style="fill: none; stroke: #0000ff; stroke-width: 1.5; stroke-linecap: round"/>
   </g>
   <g id="line2d_21">
    <path d="M 300.44635 72.970318 
L 300.264452 108.245475 
" clip-path="url(#p70457bc346)" style="fill: none; stroke: #0000ff; stroke-width: 1.5; stroke-linecap: round"/>
   </g>
   <g id="line2d_22">
    <path d="M 300.264452 108.245475 
L 299.371253 173.145133 
" clip-path="url(#p70457bc346)" style="fill: none; stroke: #0000ff; stroke-width: 1.5; stroke-linecap: round"/>
   </g>
   <g id="line2d_23">
    <path d="M 299.371253 173.145133 
L 296.850657 213.33992 
" clip-path="url(#p70457bc346)" style="fill: none; stroke: #0000ff; stroke-width: 1.5; stroke-linecap: round"/>
   </g>
   <g id="line2d_24">
    <path d="M 296.850657 213.33992 
L 302.104615 234.852447 
" clip-path="url(#p70457bc346)" style="fill: none; stroke: #0000ff; stroke-width: 1.5; stroke-linecap: round"/>
   </g>
   <g id="line2d_25">
    <path d="M 302.104615 234.852447 
L 307.067938 212.76396 
" clip-path="url(#p70457bc346)" style="fill: none; stroke: #0000ff; stroke-width: 1.5; stroke-linecap: round"/>
   </g>
   <g id="line2d_26">
    <path d="M 307.067938 212.76396 
L 314.091384 167.196767 
" clip-path="url(#p70457bc346)" style="fill: none; stroke: #0000ff; stroke-width: 1.5; stroke-linecap: round"/>
   </g>
  </g>
  <g id="axes_6">
   <g id="line2d_27">
    <path d="M 344.951843 239.687282 
L 348.162952 182.60543 
" clip-path="url(#pd13aaefd2e)" style="fill: none; stroke: #0000ff; stroke-width: 1.5; stroke-linecap: round"/>
   </g>
   <g id="line2d_28">
    <path d="M 348.162952 182.60543 
L 349.930697 152.28835 
" clip-path="url(#pd13aaefd2e)" style="fill: none; stroke: #0000ff; stroke-width: 1.5; stroke-linecap: round"/>
   </g>
   <g id="line2d_29">
    <path d="M 349.930697 152.28835 
L 355.054843 113.046409 
" clip-path="url(#pd13aaefd2e)" style="fill: none; stroke: #0000ff; stroke-width: 1.5; stroke-linecap: round"/>
   </g>
   <g id="line2d_30">
    <path d="M 355.054843 113.046409 
L 367.110186 60.334706 
" clip-path="url(#pd13aaefd2e)" style="fill: none; stroke: #0000ff; stroke-width: 1.5; stroke-linecap: round"/>
   </g>
   <g id="line2d_31">
    <path d="M 367.110186 60.334706 
L 370.153368 61.976777 
" clip-path="url(#pd13aaefd2e)" style="fill: none; stroke: #0000ff; stroke-width: 1.5; stroke-linecap: round"/>
   </g>
   <g id="line2d_32">
    <path d="M 370.153368 61.976777 
L 377.461605 47.504485 
" clip-path="url(#pd13aaefd2e)" style="fill: none; stroke: #0000ff; stroke-width: 1.5; stroke-linecap: round"/>
   </g>
   <g id="line2d_33">
    <path d="M 377.461605 47.504485 
L 381.570941 90.726183 
" clip-path="url(#pd13aaefd2e)" style="fill: none; stroke: #0000ff; stroke-width: 1.5; stroke-linecap: round"/>
   </g>
   <g id="line2d_34">
    <path d="M 381.570941 90.726183 
L 380.005989 117.387852 
" clip-path="url(#pd13aaefd2e)" style="fill: none; stroke: #0000ff; stroke-width: 1.5; stroke-linecap: round"/>
   </g>
   <g id="line2d_35">
    <path d="M 380.005989 117.387852 
L 369.505985 146.960465 
" clip-path="url(#pd13aaefd2e)" style="fill: none; stroke: #0000ff; stroke-width: 1.5; stroke-linecap: round"/>
   </g>
   <g id="line2d_36">
    <path d="M 369.505985 146.960465 
L 367.13405 175.971711 
" clip-path="url(#pd13aaefd2e)" style="fill: none; stroke: #0000ff; stroke-width: 1.5; stroke-linecap: round"/>
   </g>
   <g id="line2d_37">
    <path d="M 367.13405 175.971711 
L 355.84571 196.070557 
" clip-path="url(#pd13aaefd2e)" style="fill: none; stroke: #0000ff; stroke-width: 1.5; stroke-linecap: round"/>
   </g>
   <g id="line2d_38">
    <path d="M 344.951843 239.687282 
L 355.84571 196.070557 
" clip-path="url(#pd13aaefd2e)" style="fill: none; stroke: #0000ff; stroke-width: 1.5; stroke-linecap: round"/>
   </g>
  </g>
  <g id="text_1">
   <!-- Примеры синтетически сгенерированных данных -->
   <g style="fill: #262626" transform="translate(57.282187 14.878125) scale(0.12 -0.12)">
    <defs>
     <path id="DejaVuSans-41f" d="M 4184 4666 
L 4184 0 
L 3553 0 
L 3553 4134 
L 1259 4134 
L 1259 0 
L 628 0 
L 628 4666 
L 4184 4666 
z
" transform="scale(0.015625)"/>
     <path id="DejaVuSans-440" d="M 1159 525 
L 1159 -1331 
L 581 -1331 
L 581 3500 
L 1159 3500 
L 1159 2969 
Q 1341 3281 1617 3432 
Q 1894 3584 2278 3584 
Q 2916 3584 3314 3078 
Q 3713 2572 3713 1747 
Q 3713 922 3314 415 
Q 2916 -91 2278 -91 
Q 1894 -91 1617 61 
Q 1341 213 1159 525 
z
M 3116 1747 
Q 3116 2381 2855 2742 
Q 2594 3103 2138 3103 
Q 1681 3103 1420 2742 
Q 1159 2381 1159 1747 
Q 1159 1113 1420 752 
Q 1681 391 2138 391 
Q 2594 391 2855 752 
Q 3116 1113 3116 1747 
z
" transform="scale(0.015625)"/>
     <path id="DejaVuSans-438" d="M 3578 3500 
L 3578 0 
L 3006 0 
L 3006 2809 
L 1319 0 
L 581 0 
L 581 3500 
L 1153 3500 
L 1153 697 
L 2838 3500 
L 3578 3500 
z
" transform="scale(0.015625)"/>
     <path id="DejaVuSans-43c" d="M 581 3500 
L 1422 3500 
L 2416 1156 
L 3413 3500 
L 4247 3500 
L 4247 0 
L 3669 0 
L 3669 2950 
L 2703 672 
L 2128 672 
L 1159 2950 
L 1159 0 
L 581 0 
L 581 3500 
z
" transform="scale(0.015625)"/>
     <path id="DejaVuSans-435" d="M 3597 1894 
L 3597 1613 
L 953 1613 
Q 991 1019 1311 708 
Q 1631 397 2203 397 
Q 2534 397 2845 478 
Q 3156 559 3463 722 
L 3463 178 
Q 3153 47 2828 -22 
Q 2503 -91 2169 -91 
Q 1331 -91 842 396 
Q 353 884 353 1716 
Q 353 2575 817 3079 
Q 1281 3584 2069 3584 
Q 2775 3584 3186 3129 
Q 3597 2675 3597 1894 
z
M 3022 2063 
Q 3016 2534 2758 2815 
Q 2500 3097 2075 3097 
Q 1594 3097 1305 2825 
Q 1016 2553 972 2059 
L 3022 2063 
z
" transform="scale(0.015625)"/>
     <path id="DejaVuSans-44b" d="M 3907 3500 
L 4482 3500 
L 4482 0 
L 3907 0 
L 3907 3500 
z
M 4195 3584 
L 4195 3584 
z
M 2781 1038 
Q 2781 1319 2576 1466 
Q 2372 1613 1978 1613 
L 1159 1613 
L 1159 459 
L 1978 459 
Q 2372 459 2576 607 
Q 2781 756 2781 1038 
z
M 581 3500 
L 1159 3500 
L 1159 2072 
L 2003 2072 
Q 2672 2072 3033 1817 
Q 3394 1563 3394 1038 
Q 3394 513 3033 256 
Q 2672 0 2003 0 
L 581 0 
L 581 3500 
z
" transform="scale(0.015625)"/>
     <path id="DejaVuSans-20" transform="scale(0.015625)"/>
     <path id="DejaVuSans-441" d="M 3122 3366 
L 3122 2828 
Q 2878 2963 2633 3030 
Q 2388 3097 2138 3097 
Q 1578 3097 1268 2742 
Q 959 2388 959 1747 
Q 959 1106 1268 751 
Q 1578 397 2138 397 
Q 2388 397 2633 464 
Q 2878 531 3122 666 
L 3122 134 
Q 2881 22 2623 -34 
Q 2366 -91 2075 -91 
Q 1284 -91 818 406 
Q 353 903 353 1747 
Q 353 2603 823 3093 
Q 1294 3584 2113 3584 
Q 2378 3584 2631 3529 
Q 2884 3475 3122 3366 
z
" transform="scale(0.015625)"/>
     <path id="DejaVuSans-43d" d="M 581 3500 
L 1159 3500 
L 1159 2072 
L 3025 2072 
L 3025 3500 
L 3603 3500 
L 3603 0 
L 3025 0 
L 3025 1613 
L 1159 1613 
L 1159 0 
L 581 0 
L 581 3500 
z
" transform="scale(0.015625)"/>
     <path id="DejaVuSans-442" d="M 188 3500 
L 3541 3500 
L 3541 3041 
L 2147 3041 
L 2147 0 
L 1581 0 
L 1581 3041 
L 188 3041 
L 188 3500 
z
" transform="scale(0.015625)"/>
     <path id="DejaVuSans-447" d="M 2625 0 
L 2625 1472 
L 1553 1472 
Q 1075 1472 756 1769 
Q 469 2038 469 2613 
L 469 3500 
L 1044 3500 
L 1044 2666 
Q 1044 2300 1206 2116 
Q 1372 1931 1697 1931 
L 2625 1931 
L 2625 3500 
L 3200 3500 
L 3200 0 
L 2625 0 
z
" transform="scale(0.015625)"/>
     <path id="DejaVuSans-43a" d="M 581 3500 
L 1153 3500 
L 1153 1856 
L 2775 3500 
L 3481 3500 
L 2144 2147 
L 3653 0 
L 3009 0 
L 1769 1766 
L 1153 1141 
L 1153 0 
L 581 0 
L 581 3500 
z
" transform="scale(0.015625)"/>
     <path id="DejaVuSans-433" d="M 581 0 
L 581 3500 
L 3050 3500 
L 3050 3041 
L 1159 3041 
L 1159 0 
L 581 0 
z
" transform="scale(0.015625)"/>
     <path id="DejaVuSans-43e" d="M 1959 3097 
Q 1497 3097 1228 2736 
Q 959 2375 959 1747 
Q 959 1119 1226 758 
Q 1494 397 1959 397 
Q 2419 397 2687 759 
Q 2956 1122 2956 1747 
Q 2956 2369 2687 2733 
Q 2419 3097 1959 3097 
z
M 1959 3584 
Q 2709 3584 3137 3096 
Q 3566 2609 3566 1747 
Q 3566 888 3137 398 
Q 2709 -91 1959 -91 
Q 1206 -91 779 398 
Q 353 888 353 1747 
Q 353 2609 779 3096 
Q 1206 3584 1959 3584 
z
" transform="scale(0.015625)"/>
     <path id="DejaVuSans-432" d="M 1156 1613 
L 1156 459 
L 1975 459 
Q 2369 459 2575 607 
Q 2781 756 2781 1038 
Q 2781 1319 2575 1466 
Q 2369 1613 1975 1613 
L 1156 1613 
z
M 1156 3041 
L 1156 2072 
L 1913 2072 
Q 2238 2072 2444 2201 
Q 2650 2331 2650 2563 
Q 2650 2794 2444 2917 
Q 2238 3041 1913 3041 
L 1156 3041 
z
M 581 3500 
L 1950 3500 
Q 2566 3500 2897 3275 
Q 3228 3050 3228 2634 
Q 3228 2313 3059 2123 
Q 2891 1934 2559 1888 
Q 2956 1813 3175 1575 
Q 3394 1338 3394 981 
Q 3394 513 3033 256 
Q 2672 0 2003 0 
L 581 0 
L 581 3500 
z
" transform="scale(0.015625)"/>
     <path id="DejaVuSans-430" d="M 2194 1759 
Q 1497 1759 1228 1600 
Q 959 1441 959 1056 
Q 959 750 1161 570 
Q 1363 391 1709 391 
Q 2188 391 2477 730 
Q 2766 1069 2766 1631 
L 2766 1759 
L 2194 1759 
z
M 3341 1997 
L 3341 0 
L 2766 0 
L 2766 531 
Q 2569 213 2275 61 
Q 1981 -91 1556 -91 
Q 1019 -91 701 211 
Q 384 513 384 1019 
Q 384 1609 779 1909 
Q 1175 2209 1959 2209 
L 2766 2209 
L 2766 2266 
Q 2766 2663 2505 2880 
Q 2244 3097 1772 3097 
Q 1472 3097 1187 3025 
Q 903 2953 641 2809 
L 641 3341 
Q 956 3463 1253 3523 
Q 1550 3584 1831 3584 
Q 2591 3584 2966 3190 
Q 3341 2797 3341 1997 
z
" transform="scale(0.015625)"/>
     <path id="DejaVuSans-445" d="M 3513 3500 
L 2247 1797 
L 3578 0 
L 2900 0 
L 1881 1375 
L 863 0 
L 184 0 
L 1544 1831 
L 300 3500 
L 978 3500 
L 1906 2253 
L 2834 3500 
L 3513 3500 
z
" transform="scale(0.015625)"/>
     <path id="DejaVuSans-434" d="M 1384 459 
L 3053 459 
L 3053 3041 
L 1844 3041 
L 1844 2603 
Q 1844 1316 1475 628 
L 1384 459 
z
M 550 459 
Q 834 584 959 850 
Q 1266 1509 1266 2838 
L 1266 3500 
L 3631 3500 
L 3631 459 
L 4091 459 
L 4091 -884 
L 3631 -884 
L 3631 0 
L 794 0 
L 794 -884 
L 334 -884 
L 334 459 
L 550 459 
z
" transform="scale(0.015625)"/>
    </defs>
    <use xlink:href="#DejaVuSans-41f"/>
    <use xlink:href="#DejaVuSans-440" x="75.195312"/>
    <use xlink:href="#DejaVuSans-438" x="138.671875"/>
    <use xlink:href="#DejaVuSans-43c" x="203.662109"/>
    <use xlink:href="#DejaVuSans-435" x="279.101562"/>
    <use xlink:href="#DejaVuSans-440" x="340.625"/>
    <use xlink:href="#DejaVuSans-44b" x="404.101562"/>
    <use xlink:href="#DejaVuSans-20" x="483.056641"/>
    <use xlink:href="#DejaVuSans-441" x="514.84375"/>
    <use xlink:href="#DejaVuSans-438" x="569.824219"/>
    <use xlink:href="#DejaVuSans-43d" x="634.814453"/>
    <use xlink:href="#DejaVuSans-442" x="700.195312"/>
    <use xlink:href="#DejaVuSans-435" x="758.447266"/>
    <use xlink:href="#DejaVuSans-442" x="819.970703"/>
    <use xlink:href="#DejaVuSans-438" x="878.222656"/>
    <use xlink:href="#DejaVuSans-447" x="943.212891"/>
    <use xlink:href="#DejaVuSans-435" x="1002.294922"/>
    <use xlink:href="#DejaVuSans-441" x="1063.818359"/>
    <use xlink:href="#DejaVuSans-43a" x="1118.798828"/>
    <use xlink:href="#DejaVuSans-438" x="1179.199219"/>
    <use xlink:href="#DejaVuSans-20" x="1244.189453"/>
    <use xlink:href="#DejaVuSans-441" x="1275.976562"/>
    <use xlink:href="#DejaVuSans-433" x="1330.957031"/>
    <use xlink:href="#DejaVuSans-435" x="1383.496094"/>
    <use xlink:href="#DejaVuSans-43d" x="1445.019531"/>
    <use xlink:href="#DejaVuSans-435" x="1510.400391"/>
    <use xlink:href="#DejaVuSans-440" x="1571.923828"/>
    <use xlink:href="#DejaVuSans-438" x="1635.400391"/>
    <use xlink:href="#DejaVuSans-440" x="1700.390625"/>
    <use xlink:href="#DejaVuSans-43e" x="1763.867188"/>
    <use xlink:href="#DejaVuSans-432" x="1825.048828"/>
    <use xlink:href="#DejaVuSans-430" x="1883.984375"/>
    <use xlink:href="#DejaVuSans-43d" x="1945.263672"/>
    <use xlink:href="#DejaVuSans-43d" x="2010.644531"/>
    <use xlink:href="#DejaVuSans-44b" x="2076.025391"/>
    <use xlink:href="#DejaVuSans-445" x="2154.980469"/>
    <use xlink:href="#DejaVuSans-20" x="2214.160156"/>
    <use xlink:href="#DejaVuSans-434" x="2245.947266"/>
    <use xlink:href="#DejaVuSans-430" x="2315.087891"/>
    <use xlink:href="#DejaVuSans-43d" x="2376.367188"/>
    <use xlink:href="#DejaVuSans-43d" x="2441.748047"/>
    <use xlink:href="#DejaVuSans-44b" x="2507.128906"/>
    <use xlink:href="#DejaVuSans-445" x="2586.083984"/>
   </g>
  </g>
 </g>
 <defs>
  <clipPath id="p9ed356c2f7">
   <rect x="54" y="34.56" width="47.828571" height="217.44"/>
  </clipPath>
  <clipPath id="p6d38871717">
   <rect x="111.394286" y="34.56" width="47.828571" height="217.44"/>
  </clipPath>
  <clipPath id="p59d5d1c48f">
   <rect x="168.788571" y="34.56" width="47.828571" height="217.44"/>
  </clipPath>
  <clipPath id="pe7f5f9a919">
   <rect x="226.182857" y="34.56" width="47.828571" height="217.44"/>
  </clipPath>
  <clipPath id="p70457bc346">
   <rect x="283.577143" y="34.56" width="47.828571" height="217.44"/>
  </clipPath>
  <clipPath id="pd13aaefd2e">
   <rect x="340.971429" y="34.56" width="47.828571" height="217.44"/>
  </clipPath>
 </defs>
</svg>
